<?xml version="1.0" encoding="utf-8"?>
<!-- Generator: Adobe Illustrator 26.5.0, SVG Export Plug-In . SVG Version: 6.00 Build 0)  -->
<svg version="1.1" id="Layer_1" xmlns="http://www.w3.org/2000/svg" xmlns:xlink="http://www.w3.org/1999/xlink" x="0px" y="0px"
	 viewBox="0 0 24 24" style="enable-background:new 0 0 24 24;" xml:space="preserve">
<style type="text/css">
	.st0{fill:#FFFFFF;}
	.st1{fill:none;stroke:#101828;stroke-linecap:round;stroke-linejoin:round;}
</style>
<path class="st0" d="M0,0v24h24V0H0z M10.5,16.1L7,12.5h7.3L10.5,16.1z M16,16.4l-1.3-1.3l0.9-1.3l1.5,1.5L16,16.4z"/>
<path class="st1" d="M14,12.5H7 M11,9l-1-1 M17,15c0,0.6-0.4,1-1,1c-0.6,0-1-0.4-1-1s1-1.5,1-1.5S17,14.5,17,15z M10.5,8.5l3.4,3.4
	c0.2,0.2,0.3,0.3,0.3,0.4c0,0.1,0,0.2,0,0.3c0,0.1-0.1,0.2-0.3,0.4l-2.3,2.3c-0.4,0.4-0.6,0.6-0.8,0.7c-0.2,0.1-0.4,0.1-0.6,0
	c-0.2-0.1-0.4-0.3-0.8-0.7l-1.7-1.7c-0.4-0.4-0.6-0.6-0.7-0.8c-0.1-0.2-0.1-0.4,0-0.6C7,12,7.2,11.8,7.6,11.4L10.5,8.5z"/>
</svg>
