<svg width="800" height="800" viewBox="0 0 800 800" fill="none" xmlns="http://www.w3.org/2000/svg">
<g clip-path="url(#clip0_12_34)">
<rect y="198.87" width="800" height="2.26" fill="black"/>
<rect x="601.195" y="0.0650024" width="800" height="2.26" transform="rotate(90 601.195 0.0650024)" fill="black"/>
<rect y="265.54" width="800" height="2.26" fill="black"/>
<rect x="534.525" y="0.0650024" width="800" height="2.26" transform="rotate(90 534.525 0.0650024)" fill="black"/>
<rect y="332.2" width="800" height="2.26" fill="black"/>
<rect x="467.865" y="0.0650024" width="800" height="2.26" transform="rotate(90 467.865 0.0650024)" fill="black"/>
<rect y="398.87" width="800" height="2.26" fill="black"/>
<rect x="401.195" y="0.0650024" width="800" height="2.26" transform="rotate(90 401.195 0.0650024)" fill="black"/>
<rect y="465.54" width="800" height="2.26" fill="black"/>
<rect x="334.525" y="0.0650024" width="800" height="2.26" transform="rotate(90 334.525 0.0650024)" fill="black"/>
<rect y="532.2" width="800" height="2.26" fill="black"/>
<rect x="267.865" y="0.0650024" width="800" height="2.26" transform="rotate(90 267.865 0.0650024)" fill="black"/>
<rect y="598.87" width="800" height="2.26" fill="black"/>
<rect x="201.195" y="0.0650024" width="800" height="2.26" transform="rotate(90 201.195 0.0650024)" fill="black"/>
<rect y="665.53" width="800" height="2.26" fill="black"/>
<rect x="134.535" y="0.0650024" width="800" height="2.26" transform="rotate(90 134.535 0.0650024)" fill="black"/>
<rect y="732.2" width="800" height="2.26" fill="black"/>
<rect x="67.865" y="0.0650024" width="800" height="2.26" transform="rotate(90 67.865 0.0650024)" fill="black"/>
<rect y="799" width="800" height="1.13" fill="black"/>
<rect x="1.06506" y="0.0649719" width="800" height="1.13" transform="rotate(90 1.06506 0.0649719)" fill="black"/>
<rect y="132.2" width="800" height="2.26" fill="black"/>
<rect x="667.865" y="0.0650024" width="800" height="2.26" transform="rotate(90 667.865 0.0650024)" fill="black"/>
<rect y="65.54" width="800" height="2.26" fill="black"/>
<rect x="734.525" y="0.0650024" width="800" height="2.26" transform="rotate(90 734.525 0.0650024)" fill="black"/>
<rect width="800" height="1.13" fill="black"/>
<rect x="800.065" y="0.065033" width="800" height="1.13" transform="rotate(90 800.065 0.065033)" fill="black"/>
</g>
<defs>
<clipPath id="clip0_12_34">
<rect width="800" height="800" fill="white"/>
</clipPath>
</defs>
</svg>
